<!DOCTYPE svg PUBLIC "-//W3C//DTD SVG 1.1//EN" "http://www.w3.org/Graphics/SVG/1.1/DTD/svg11.dtd">

<!-- Uploaded to: SVG Repo, www.svgrepo.com, Transformed by: SVG Repo Mixer Tools -->
<svg fill="#189ADE" width="800px" height="800px" viewBox="0 0 14 14" xmlns="http://www.w3.org/2000/svg">

<g id="SVGRepo_bgCarrier" stroke-width="0"/>

<g id="SVGRepo_tracerCarrier" stroke-linecap="round" stroke-linejoin="round"/>

<g id="SVGRepo_iconCarrier">

<path d="M0 7a7 7 0 1 1 14 0A7 7 0 0 1 0 7z M6.278 7.697L5.045 6.464a.296.296 0 0 0-.42-.002l-.613.614a.298.298 0 0 0 .002.42l1.91 1.909a.5.5 0 0 0 .703.005l.265-.265L9.997 6.04a.291.291 0 0 0-.009-.408l-.614-.614a.29.29 0 0 0-.408-.009L6.278 7.697z" fill-rule="evenodd"/>

</g>

</svg>